<?xml version="1.0" encoding="utf-8"?>
<!-- Generator: Adobe Illustrator 26.0.2, SVG Export Plug-In . SVG Version: 6.00 Build 0)  -->
<svg version="1.1" id="Calque_1" xmlns="http://www.w3.org/2000/svg" xmlns:xlink="http://www.w3.org/1999/xlink" x="0px" y="0px"
	 viewBox="0 0 512 512" style="enable-background:new 0 0 512 512;" xml:space="preserve">
<style type="text/css">
	.st0{fill:#05FDD8;}
	.st1{display:none;}
</style>
<g id="C_-_76_x2C__Resume_x2C__Application_x2C__clipboard_x2C__curriculum_x2C__cv">
	<g>
		<path class="st0" d="M256,242.4c17.2,0,31.2-13.9,31.2-31.1c0-17.1-14-31.1-31.2-31.1c-17.2,0-31.2,13.9-31.2,31.1
			C224.8,228.4,238.8,242.4,256,242.4z"/>
		<path class="st0" d="M314.2,292.5c0-12.6-10.3-22.8-23-22.8h-70.2c-12.8,0-23.2,10.4-23.2,23.1v30.1h116.4L314.2,292.5
			L314.2,292.5z"/>
		<path class="st0" d="M323.2,95.1V73h-40.2c-2.6,0-4.7-2.1-4.7-4.7c0-12.2-10-22.1-22.3-22.1c-12.3,0-22.3,9.9-22.3,22.1
			c0,2.6-2.1,4.7-4.7,4.7h-40.2v22.1v22.1h134.3L323.2,95.1L323.2,95.1z"/>
		<path class="st0" d="M332.5,99.8v22.1c0,2.6-2.1,4.7-4.7,4.7H184.2c-2.6,0-4.7-2.1-4.7-4.7V99.8H126v366h260v-366H332.5z
			 M256,170.9c22.4,0,40.6,18.1,40.6,40.4c0,22.3-18.2,40.4-40.6,40.4c-22.4,0-40.6-18.1-40.6-40.4S233.6,170.9,256,170.9z
			 M188.5,292.7c0-17.9,14.6-32.5,32.6-32.5h70.2c17.8,0,32.3,14.4,32.3,32.2v35.1c0,2.6-2.1,4.7-4.7,4.7H193.1
			c-2.6,0-4.7-2.1-4.7-4.7V292.7z M256,433.2h-98.8c-2.6,0-4.7-2.1-4.7-4.7c0-2.6,2.1-4.7,4.7-4.7H256c2.6,0,4.7,2.1,4.7,4.7
			C260.7,431.2,258.6,433.2,256,433.2z M354.8,399.9H157.2c-2.6,0-4.7-2.1-4.7-4.7c0-2.6,2.1-4.7,4.7-4.7h197.6
			c2.6,0,4.7,2.1,4.7,4.7C359.5,397.8,357.4,399.9,354.8,399.9z M354.8,366.5H157.2c-2.6,0-4.7-2.1-4.7-4.7s2.1-4.7,4.7-4.7h197.6
			c2.6,0,4.7,2.1,4.7,4.7S357.4,366.5,354.8,366.5z"/>
	</g>
</g>
<g id="Layer_1" class="st1">
</g>
</svg>
